HIERARCHY
ROOT pelvis
{
  OFFSET 0 100 0
  CHANNELS 6 Xposition Yposition Zposition Zrotation Xrotation Yrotation
  JOINT pelvis_right_femur
  {
    OFFSET -10.78128 -3.44521 -0.5502486
    CHANNELS 3 Zrotation Xrotation Yrotation
    JOINT right_femur_tibia
    {
      OFFSET -0.8047443 -44.0398 -0.1307829
      CHANNELS 3 Zrotation Xrotation Yrotation
      JOINT right_tibia_foot
      {
        OFFSET 3.006224 -47.83518 -5
        CHANNELS 3 Zrotation Xrotation Yrotation
        End Site
        {
          OFFSET 0 -5 15
        }
      }
    }
  }
  JOINT pelvis_left_femur
  {
    OFFSET 10.78128 -3.44521 -0.5502486
    CHANNELS 3 Zrotation Xrotation Yrotation
    JOINT left_femur_tibia
    {
      OFFSET 0.8047443 -44.0398 -0.1307829
      CHANNELS 3 Zrotation Xrotation Yrotation
      JOINT left_tibia_foot
      {
        OFFSET -4.370144 -48.10324 -4.275266
        CHANNELS 3 Zrotation Xrotation Yrotation
        End Site
        {
          OFFSET 0 -5 15
        }
      }
    }
  }
  JOINT pelvis_spine1
  {
    OFFSET 0 6.468898 -3.129235
    CHANNELS 3 Zrotation Xrotation Yrotation
    JOINT spine1
    {
      OFFSET 0 23.15396 4.99043
      CHANNELS 3 Zrotation Xrotation Yrotation
      JOINT spine2
      {
        OFFSET 0 20.79997 -5.064912
        CHANNELS 3 Zrotation Xrotation Yrotation
        JOINT neck
        {
          OFFSET 0 14.38658 9.616178
          CHANNELS 3 Zrotation Xrotation Yrotation
          End Site
          {
            OFFSET 0 20 0
          }
        }
      }
      JOINT right_manubrium
      {
        OFFSET -5.722621 16.35077 3.967754
        CHANNELS 3 Zrotation Xrotation Yrotation
        JOINT right_clavicle
        {
          OFFSET -13.16364 1.694482 -4.693211
          CHANNELS 3 Zrotation Xrotation Yrotation
          JOINT right_humerus
          {
            OFFSET -28.5034 -0.3100689 -2.792744
            CHANNELS 3 Zrotation Xrotation Yrotation
            JOINT right_radius
            {
              OFFSET -25.15693 0.02248979 -1.271978
              CHANNELS 3 Zrotation Xrotation Yrotation
              End Site
              {
                OFFSET -15 0 0
              }
            }
          }
        }
      }
      JOINT left_manubrium
      {
        OFFSET 5.722621 16.35077 3.967754
        CHANNELS 3 Zrotation Xrotation Yrotation
        JOINT left_clavicle
        {
          OFFSET 13.16364 1.694482 -4.693211
          CHANNELS 3 Zrotation Xrotation Yrotation
          JOINT left_humerus
          {
            OFFSET 29.39168 -1.063119 -2.237045
            CHANNELS 3 Zrotation Xrotation Yrotation
            JOINT left_radius
            {
              OFFSET 24.59957 -0.9528479 0.9047498
              CHANNELS 3 Zrotation Xrotation Yrotation
              End Site
              {
                OFFSET 15 -0 -0
              }
            }
          }
        }
      }
    }
  }
}
MOTION
Frames: 11
Frame Time: 0.0416666666667
0 103.5113 0 1.225054 -0.6657194 -0.09903486 3.305941 -16.06728 9.562118 -0 37.12986 -0 -5.25157 -18.10798 -4.447147 -7.495216 10.34141 -24.03652 -0 6.012885 -0 10.0849 -17.2987 28.57138 -4.43844 -4.381103 4.835135 2.8957 9.390496 -7.779616 1.725236 22.42121 6.086868 2.431249 -24.46477 9.599667 6.592236 -19.95636 11.39199 85.18998 35.76763 -18.76698 -0 0 16.42526 -7.479519 8.903048 4.755593 5.528806 -18.89909 -0.9123027 -94.75552 26.80149 22.84688 0 0 -14.15002 7.366146 18.9067 5.606192
0.3093979 103.7161 1.366473 1.160166 -0.6106981 -0.1960976 3.357438 -16.66438 9.275068 -0 36.65615 -0 -5.335288 -17.5184 -4.276869 -7.417896 10.45276 -23.7317 -0 6.031894 -0 9.972346 -17.44343 28.23756 -4.376961 -4.301002 4.780275 2.894359 9.476774 -7.832458 1.67875 22.32616 6.153688 2.518146 -24.46376 9.540228 6.562306 -19.90482 11.43127 85.26227 35.67176 -18.8599 -0 0 16.33375 -7.756392 8.970974 4.828309 5.654169 -19.12654 -0.9846457 -94.41626 26.36828 22.45328 0 0 -14.41113 7.769605 18.74088 5.048632
0.618946 103.7084 3.488481 0.2271622 0.7664905 -0.1336167 4.365531 -22.35074 7.441118 -0 30.19787 -0 -5.83442 -12.74318 -3.120813 -6.648872 11.54623 -21.33775 -0 6.255429 -0 7.332454 -19.86663 24.8749 -3.475351 -3.524185 4.499483 2.966706 9.582781 -8.197238 1.50655 21.43644 6.817221 3.119721 -25.26008 9.620629 6.006769 -19.44253 11.37788 86.03788 34.77406 -20.14354 -0 0 15.55406 -9.16284 9.619617 4.959195 6.656895 -20.83219 -1.121407 -93.36954 25.31151 21.17168 0 0 -16.86926 8.569499 17.97491 4.20281
0.935004 103.6484 5.837812 -0.08544685 1.564699 0.007253583 5.056303 -24.56203 7.459334 -0 28.64817 -0 -5.9093 -11.252 -2.597837 -6.522898 11.6073 -20.67418 -0 6.614777 -0 7.722665 -19.90567 24.32966 -3.251695 -3.260364 4.503717 3.103506 9.73706 -8.347684 1.446797 20.94958 7.010331 3.32774 -25.76187 9.693948 6.071689 -19.38756 11.47059 86.09112 35.32441 -20.31744 -0 0 15.44871 -8.956662 9.729276 4.866898 6.941977 -21.16473 -1.054569 -92.88812 24.12396 20.77391 0 0 -17.5121 10.11676 16.99435 2.496255
1.255213 103.6105 8.475437 -0.6203983 3.001437 0.2704505 6.345888 -27.37206 8.14485 -0 26.46752 -0 -5.845468 -9.780384 -2.108775 -6.360829 11.69476 -20.18057 -0 6.905873 -0 7.804481 -20.11666 23.6204 -2.848994 -2.935621 4.580661 3.322842 9.67792 -8.479238 1.451789 20.30485 7.272454 3.482217 -26.73892 10.05165 6.157096 -19.3578 11.48507 86.21225 36.2756 -20.70981 -0 0 15.36325 -7.988379 9.80586 4.607821 7.128246 -21.28969 -0.7645815 -93.02975 23.94016 21.27878 0 0 -18.49304 10.87466 15.86624 2.216642
1.586373 103.5562 11.44335 -1.154293 4.251056 0.6652622 7.606665 -30.08382 8.64679 -0 24.64284 -0 -5.897112 -8.218733 -1.513983 -6.152156 11.88569 -19.59418 -0 7.354736 -0 7.761432 -20.03703 22.64178 -2.413808 -2.556039 4.519901 3.48779 9.677994 -8.585383 1.3757 19.70743 7.591545 3.680993 -27.49608 10.30619 6.266969 -19.23166 11.5749 86.41825 37.22182 -21.07693 -0 0 15.10148 -7.261628 9.883486 4.535809 7.279872 -21.44771 -0.6436855 -92.78908 23.49189 21.32189 0 0 -19.71064 11.77239 14.53111 1.60751
1.930379 103.4773 14.80587 -1.743702 5.343667 1.197218 8.808952 -32.56713 8.929619 -0 22.70205 -0 -6.060321 -6.67769 -0.952005 -5.853273 12.25552 -18.921 -0 8.091631 -0 7.010413 -19.96413 21.19166 -1.879587 -2.162909 4.337113 3.595079 9.617241 -8.6614 1.266741 19.20048 7.94253 3.867075 -28.0863 10.51799 6.293642 -18.98737 11.64295 86.78311 37.88727 -21.57001 -0 0 14.62157 -6.809885 10.01029 4.620897 7.384293 -21.64526 -0.6063988 -92.47812 23.371 21.2177 0 0 -21.14267 12.12008 13.36586 1.594652
2.289881 103.3673 18.64455 -2.363037 6.134535 1.839608 9.802819 -34.66089 8.766956 -0 20.60055 -0 -6.404954 -5.098524 -0.4253093 -5.453102 12.7856 -18.02802 -0 9.622156 -0 5.458555 -19.79583 19.18328 -1.250554 -1.780598 4.021208 3.630626 9.540094 -8.733973 1.108015 18.81071 8.310471 4.063584 -28.39721 10.60319 6.220659 -18.58364 11.68993 87.30773 38.16311 -22.18919 -0 0 13.87003 -6.86222 10.25131 4.858635 7.478673 -21.96845 -0.6875688 -91.97154 23.31756 20.75665 0 0 -22.67846 12.08166 12.45706 1.837993
2.669703 103.2578 23.01038 -2.960592 6.548163 2.533956 10.51024 -36.00512 8.221661 -0 18.56408 -0 -6.909494 -3.679085 -0.01579709 -4.995736 13.31571 -16.97757 -0 12.32383 -0 3.289149 -19.32237 16.82822 -0.5584822 -1.464867 3.63862 3.598932 9.467653 -8.800284 0.9231129 18.57467 8.64044 4.234304 -28.42711 10.55565 6.050308 -18.07277 11.70811 87.95731 38.05552 -22.88358 -0 0 12.89638 -7.362943 10.59247 5.202458 7.508298 -22.35557 -0.8645971 -91.37582 23.32669 20.08474 0 0 -24.09847 11.67398 11.87646 2.33926
3.07477 103.2213 27.92963 -3.47418 6.50476 3.192416 10.88077 -36.25196 7.361901 -0 16.80281 -0 -7.560414 -2.569561 0.2141198 -4.517626 13.6312 -15.79674 -0 16.67855 -0 0.7442492 -18.30247 14.34981 0.1695147 -1.242434 3.264412 3.497753 9.43706 -8.849 0.7340849 18.5258 8.884231 4.354079 -28.17199 10.36946 5.782732 -17.50654 11.69793 88.70248 37.59259 -23.58699 -0 0 11.74052 -8.258265 11.01752 5.610171 7.412042 -22.75035 -1.137082 -90.76235 23.35388 19.32273 0 0 -25.20617 10.96732 11.63054 3.046303
3.507027 103.3609 33.37409 -3.786551 5.889905 3.69541 10.84293 -35.00212 6.262919 -0 15.54327 -0 -8.318743 -1.929997 0.2233373 -4.079859 13.40516 -14.5222 -0 23.03704 -0 -1.730649 -16.54976 12.11914 0.8573393 -1.117721 3.009522 3.312868 9.50989 -8.844947 0.5682415 18.71194 8.988484 4.406845 -27.6094 10.03853 5.41729 -16.96653 11.67394 89.48718 36.83309 -24.17341 -0 0 10.48983 -9.496373 11.48919 6.0296 7.135192 -23.09567 -1.533116 -90.1769 23.27503 18.57421 0 0 -25.78803 10.14324 11.68604 3.761789
